<svg width="76" height="59" viewBox="0 0 76 59" fill="none" xmlns="http://www.w3.org/2000/svg">
<path d="M6.72776 53.326C2.35026 48.6765 7.56246e-06 43.4617 6.08445e-06 35.0085C3.48362e-06 20.1335 10.4423 6.80122 25.6275 0.209468L29.4228 6.06597C15.249 13.733 12.478 23.6822 11.373 29.9552C13.6553 28.7737 16.643 28.3615 19.5713 28.6335C27.2383 29.3432 33.2818 35.6375 33.2818 43.4617C33.2818 47.4068 31.7146 51.1903 28.925 53.9799C26.1354 56.7695 22.3519 58.3367 18.4068 58.3367C13.8465 58.3367 9.48601 56.2542 6.72776 53.326ZM49.2278 53.326C44.8503 48.6765 42.5 43.4617 42.5 35.0085C42.5 20.1335 52.9423 6.80121 68.1275 0.209461L71.9228 6.06596C57.749 13.733 54.978 23.6822 53.873 29.9552C56.1553 28.7737 59.143 28.3615 62.0713 28.6335C69.7383 29.3432 75.7818 35.6375 75.7818 43.4617C75.7818 47.4068 74.2146 51.1903 71.425 53.9799C68.6354 56.7695 64.8519 58.3367 60.9068 58.3367C56.3465 58.3367 51.986 56.2542 49.2278 53.326Z" fill="#E8ECED"/>
</svg>
