<svg width="40" height="40" viewBox="0 0 40 40" fill="none" xmlns="http://www.w3.org/2000/svg">
<g id="Huge-icon/education/bulk/book-check">
<path id="Subtract" fill-rule="evenodd" clip-rule="evenodd" d="M18.862 9.04074C15.3225 6.56053 10.3552 5.43658 6.65787 5.01879C4.82802 4.81202 3.33398 6.34004 3.33398 8.2253V26.9999C3.33398 28.8852 4.82802 30.4138 6.65787 30.6205C10.3552 31.0383 15.3225 32.1623 18.862 34.6425C19.2022 34.8808 19.6014 35 20.0007 35V9.39825C19.6014 9.39825 19.2022 9.27908 18.862 9.04074ZM7.09889 13.5666C7.20454 12.8844 7.84324 12.417 8.52547 12.5226C10.6968 12.8589 13.142 13.421 15.4517 14.3141C16.0956 14.5631 16.4157 15.2869 16.1667 15.9308C15.9177 16.5747 15.1939 16.8948 14.55 16.6458C12.4522 15.8346 10.1908 15.3103 8.14286 14.9932C7.46063 14.8875 6.99323 14.2488 7.09889 13.5666ZM8.52547 19.1893C7.84324 19.0836 7.20454 19.551 7.09889 20.2333C6.99323 20.9155 7.46063 21.5542 8.14286 21.6598C9.17493 21.8197 10.2644 22.0326 11.3617 22.3095C12.0311 22.4783 12.7106 22.0726 12.8795 21.4032C13.0484 20.7338 12.6427 20.0543 11.9733 19.8854C10.7916 19.5873 9.62502 19.3596 8.52547 19.1893Z" fill="#00C508"/>
<path id="Vector" opacity="0.4" d="M21.1386 9.04074C24.6781 6.56053 29.6455 5.43658 33.3428 5.01879C35.1726 4.81202 36.6667 6.34004 36.6667 8.2253V26.9999C36.6667 28.8852 35.1726 30.4138 33.3428 30.6205C29.6455 31.0383 24.6781 32.1623 21.1386 34.6425C20.7985 34.8808 20.3992 35 20 35V9.39825C20.3992 9.39825 20.7985 9.27908 21.1386 9.04074Z" fill="#00C508"/>
<path id="Vector 1265 (Stroke)" fill-rule="evenodd" clip-rule="evenodd" d="M35.8232 27.3933C36.3427 27.8479 36.3954 28.6376 35.9408 29.1571L31.1576 34.6236C30.1298 35.7983 28.3594 35.9556 27.1405 34.9805L24.2192 32.6434C23.6801 32.2122 23.5927 31.4255 24.024 30.8865C24.4552 30.3474 25.2418 30.26 25.7809 30.6912L28.7023 33.0283C28.8764 33.1676 29.1293 33.1452 29.2761 32.9774L34.0593 27.5109C34.5139 26.9913 35.3036 26.9387 35.8232 27.3933Z" fill="#00C508"/>
</g>
</svg>
