<svg width="40" height="40" viewBox="0 0 40 40" fill="none" xmlns="http://www.w3.org/2000/svg">
<path d="M28.334 10.0007H11.6673C9.82637 10.0007 8.33398 8.50827 8.33398 6.66732C8.33398 4.82637 9.82637 3.33398 11.6673 3.33398H28.334C30.1749 3.33398 31.6673 4.82637 31.6673 6.66732C31.6673 8.50827 30.1749 10.0007 28.334 10.0007Z" fill="#00C508"/>
<path opacity="0.4" d="M28.3474 10H11.6539L8.79723 18.8803C7.96907 20.9715 8.26244 23.3019 9.58796 25.1614L18.4142 35.8767C19.165 36.93 20.8363 36.93 21.5871 35.8767L30.4133 25.1614C31.7389 23.3019 32.0322 20.9715 31.2041 18.8803L28.3474 10Z" fill="#00C508"/>
<path d="M21.2513 23.0923C22.4729 22.5978 23.3346 21.4002 23.3346 20.0013C23.3346 18.1604 21.8423 16.668 20.0013 16.668C18.1604 16.668 16.668 18.1604 16.668 20.0013C16.668 21.4002 17.5297 22.5978 18.7513 23.0923V36.2362C19.4607 36.8119 20.542 36.8119 21.2513 36.2362V23.0923Z" fill="#00C508"/>
</svg>
