<svg width="30" height="34" viewBox="0 0 30 34" fill="none" xmlns="http://www.w3.org/2000/svg">
<g id="home wifi">
<path id="Vector 300" opacity="0.4" d="M30 26.9454V13.9179C30 11.8996 29.1006 9.98815 27.5502 8.71152L19.2169 1.84956C16.7628 -0.17121 13.2372 -0.171206 10.7831 1.84956L2.44977 8.71152C0.899408 9.98815 0 11.8996 0 13.9179V26.9454C0 30.6578 2.98477 33.6673 6.66667 33.6673H23.3333C27.0152 33.6673 30 30.6578 30 26.9454Z" fill="#00C508"/>
<path id="Ellipse 489" d="M16.25 25.334C16.25 26.0243 15.6904 26.584 15 26.584C14.3096 26.584 13.75 26.0243 13.75 25.334C13.75 24.6436 14.3096 24.084 15 24.084C15.6904 24.084 16.25 24.6436 16.25 25.334Z" fill="#00C508"/>
<path id="Vector (Stroke)" fill-rule="evenodd" clip-rule="evenodd" d="M15.0008 16.584C12.5842 16.584 10.3984 17.562 8.81357 19.1468C8.32542 19.635 7.53396 19.635 7.0458 19.1468C6.55765 18.6586 6.55765 17.8672 7.0458 17.379C9.08029 15.3446 11.8945 14.084 15.0008 14.084C18.107 14.084 20.9212 15.3446 22.9557 17.379C23.4439 17.8672 23.4439 18.6586 22.9557 19.1468C22.4676 19.635 21.6761 19.635 21.1879 19.1468C19.6031 17.562 17.4173 16.584 15.0008 16.584ZM15.0008 21.584C13.9649 21.584 13.0291 22.0023 12.3491 22.6823C11.8609 23.1705 11.0695 23.1705 10.5813 22.6823C10.0932 22.1942 10.0932 21.4027 10.5813 20.9146C11.711 19.7849 13.2752 19.084 15.0008 19.084C16.7263 19.084 18.2905 19.7849 19.4202 20.9146C19.9083 21.4027 19.9083 22.1942 19.4202 22.6823C18.932 23.1705 18.1406 23.1705 17.6524 22.6823C16.9724 22.0023 16.0366 21.584 15.0008 21.584Z" fill="#00C508"/>
</g>
</svg>
