<svg width="34" height="35" viewBox="0 0 34 35" fill="none" xmlns="http://www.w3.org/2000/svg">
<g id="monitor">
<path id="Rectangle 730" opacity="0.4" d="M0.333984 7.00065C0.333984 3.31875 3.31875 0.333984 7.00065 0.333984H27.0007C30.6826 0.333984 33.6673 3.31875 33.6673 7.00065V22.0007C33.6673 25.6825 30.6826 28.6673 27.0007 28.6673H7.00065C3.31875 28.6673 0.333984 25.6825 0.333984 22.0007V7.00065Z" fill="#10D563"/>
<path id="Vector 2960 (Stroke)" opacity="0.4" fill-rule="evenodd" clip-rule="evenodd" d="M17 25.75C17.6904 25.75 18.25 26.3096 18.25 27V32.4167H22C22.6904 32.4167 23.25 32.9763 23.25 33.6667C23.25 34.357 22.6904 34.9167 22 34.9167H12C11.3096 34.9167 10.75 34.357 10.75 33.6667C10.75 32.9763 11.3096 32.4167 12 32.4167H15.75V27C15.75 26.3096 16.3096 25.75 17 25.75Z" fill="#10D563"/>
<path id="Vector 1768 (Stroke)" fill-rule="evenodd" clip-rule="evenodd" d="M7.41797 8.66797C7.41797 7.97761 7.97761 7.41797 8.66797 7.41797H17.0013C17.6917 7.41797 18.2513 7.97761 18.2513 8.66797C18.2513 9.35832 17.6917 9.91797 17.0013 9.91797H8.66797C7.97761 9.91797 7.41797 9.35832 7.41797 8.66797Z" fill="#10D563"/>
<path id="Vector 2961 (Stroke)" fill-rule="evenodd" clip-rule="evenodd" d="M7.41797 15.334C7.41797 14.6436 7.97761 14.084 8.66797 14.084H25.3346C26.025 14.084 26.5846 14.6436 26.5846 15.334C26.5846 16.0243 26.025 16.584 25.3346 16.584H8.66797C7.97761 16.584 7.41797 16.0243 7.41797 15.334Z" fill="#10D563"/>
<g id="Vector 1769">
<path d="M33.6673 22H0.333984V24.6667C0.333984 26.8758 2.12484 28.6667 4.33398 28.6667H29.6673C31.8765 28.6667 33.6673 26.8758 33.6673 24.6667V22Z" fill="#10D563"/>
</g>
</g>
</svg>
