<svg width="35" height="32" viewBox="0 0 35 32" fill="none" xmlns="http://www.w3.org/2000/svg">
<g id="teacher">
<path id="Vector 1461" opacity="0.4" d="M11.332 3.33333V16.6667C11.332 18.5076 12.8244 20 14.6654 20H31.332C33.173 20 34.6654 18.5076 34.6654 16.6667V3.33333C34.6654 1.49238 33.173 0 31.332 0H14.6654C12.8244 0 11.332 1.49238 11.332 3.33333Z" fill="#00C508"/>
<path id="Ellipse 570 (Stroke)" fill-rule="evenodd" clip-rule="evenodd" d="M7.16602 17.5007C7.16602 15.1995 9.0315 13.334 11.3327 13.334C13.6339 13.334 15.4993 15.1995 15.4993 17.5007C15.4993 19.8018 13.6339 21.6673 11.3327 21.6673C9.0315 21.6673 7.16602 19.8018 7.16602 17.5007Z" fill="#00C508"/>
<path id="Vector 1460 (Stroke)" fill-rule="evenodd" clip-rule="evenodd" d="M21.8531 18.864C22.4807 19.1516 22.7562 19.8935 22.4686 20.5211C21.4602 22.7212 17.8861 26.7048 11.3323 26.7048C5.76493 26.7048 3.03022 29.5069 2.42753 30.6027C2.09484 31.2076 1.33477 31.4283 0.729865 31.0956C0.124964 30.7629 -0.0957016 30.0028 0.236994 29.3979C1.30097 27.4634 4.8996 24.2048 11.3323 24.2048C16.7784 24.2048 19.5377 20.9157 20.1959 19.4795C20.4836 18.8519 21.2255 18.5763 21.8531 18.864Z" fill="#00C508"/>
<path id="Vector 1462 (Stroke)" fill-rule="evenodd" clip-rule="evenodd" d="M16.75 6.66602C16.75 5.97566 17.3096 5.41602 18 5.41602L28 5.41602C28.6904 5.41602 29.25 5.97566 29.25 6.66602C29.25 7.35637 28.6904 7.91602 28 7.91602L18 7.91602C17.3096 7.91602 16.75 7.35637 16.75 6.66602Z" fill="#00C508"/>
<path id="Vector 1464 (Stroke)" fill-rule="evenodd" clip-rule="evenodd" d="M21.75 13.334C21.75 12.6436 22.3096 12.084 23 12.084L28 12.084C28.6904 12.084 29.25 12.6436 29.25 13.334C29.25 14.0243 28.6904 14.584 28 14.584L23 14.584C22.3096 14.584 21.75 14.0243 21.75 13.334Z" fill="#00C508"/>
</g>
</svg>
