<svg width="34" height="30" viewBox="0 0 34 30" fill="none" xmlns="http://www.w3.org/2000/svg">
<g id="teacher">
<path id="Vector 1465" opacity="0.4" d="M8.66797 3.33333V18.3333C8.66797 20.1743 10.1604 21.6667 12.0013 21.6667H30.3346C32.1756 21.6667 33.668 20.1743 33.668 18.3333V3.33333C33.668 1.49238 32.1756 0 30.3346 0H12.0013C10.1604 0 8.66797 1.49238 8.66797 3.33333Z" fill="#00C508"/>
<path id="Rectangle 551" d="M0.333984 24.9993C0.333984 23.1584 1.82637 21.666 3.66732 21.666H3.95327C4.83733 21.666 5.68517 22.0172 6.31029 22.6423V22.6423C7.61204 23.9441 9.72259 23.9441 11.0243 22.6423V22.6423C11.6495 22.0172 12.4973 21.666 13.3814 21.666H13.6673C15.5083 21.666 17.0007 23.1584 17.0007 24.9993V26.666C17.0007 28.507 15.5083 29.9993 13.6673 29.9993H3.66732C1.82637 29.9993 0.333984 28.507 0.333984 26.666V24.9993Z" fill="#00C508"/>
<path id="Ellipse 571" d="M12.8333 15.8327C12.8333 18.1339 10.9679 19.9993 8.66667 19.9993C6.36548 19.9993 4.5 18.1339 4.5 15.8327C4.5 13.5315 6.36548 11.666 8.66667 11.666C10.9679 11.666 12.8333 13.5315 12.8333 15.8327Z" fill="#00C508"/>
<path id="Vector 1466 (Stroke)" fill-rule="evenodd" clip-rule="evenodd" d="M14.084 7.5C14.084 6.80964 14.6436 6.25 15.334 6.25L27.0007 6.25C27.691 6.25 28.2507 6.80964 28.2507 7.5C28.2507 8.19036 27.691 8.75 27.0007 8.75L15.334 8.75C14.6436 8.75 14.084 8.19036 14.084 7.5Z" fill="#00C508"/>
<path id="Vector 1467 (Stroke)" fill-rule="evenodd" clip-rule="evenodd" d="M19.084 14.166C19.084 13.4757 19.6436 12.916 20.334 12.916L27.0007 12.916C27.691 12.916 28.2507 13.4757 28.2507 14.166C28.2507 14.8564 27.691 15.416 27.0007 15.416L20.334 15.416C19.6436 15.416 19.084 14.8564 19.084 14.166Z" fill="#00C508"/>
</g>
</svg>
