<svg width="208" height="64" viewBox="0 0 208 64" fill="none" xmlns="http://www.w3.org/2000/svg">
<path fill-rule="evenodd" clip-rule="evenodd" d="M61.853 52.3186H54.1588V41.5729H62.2188C63.095 41.5729 63.7182 41.7716 64.2978 42.0592C67.1144 43.4592 68.1547 46.3661 66.9684 49.1316C66.1931 50.9411 64.2557 52.3201 61.853 52.3201V52.3186ZM60.6321 31.315H54.1603V24.7213H60.5102C62.5305 24.7213 64.0509 26.0521 64.0509 28.0181C64.0509 29.9195 62.541 31.315 60.6321 31.315ZM32.7895 14.4634C27.7117 14.4634 25.2699 20.4248 28.5427 23.961C29.9879 25.5222 31.3443 25.6983 33.2772 25.6983C36.422 25.6983 36.4461 22.7672 39.6271 22.7672C41.009 22.7672 42.257 24.0875 42.3172 25.4499C42.394 27.1616 42.3127 29.09 42.3127 30.8272V60.502C42.3127 61.6582 42.0854 62.9438 42.6785 62.9438H62.7066C65.2342 62.9438 67.3628 62.6066 69.216 61.881C71.1776 61.1147 72.4647 60.2581 73.9596 59.0538C75.3626 57.9247 76.3938 56.3651 77.3091 54.8326C79.4784 51.2045 79.4619 45.4795 77.4431 41.7325C77.2685 41.4088 77.1586 41.2688 76.993 40.9602C76.5895 40.2075 75.9964 39.5045 75.4424 38.8466C73.6886 36.7601 71.8023 35.8824 71.4967 35.4654C72.1275 35.2968 73.523 33.5806 73.9159 32.9996C74.6746 31.881 75.0691 31.1479 75.5433 29.7418C75.7059 29.2616 75.9422 28.3237 75.9994 27.7547C76.3186 24.5707 75.4785 21.6879 73.6449 19.2717C71.1806 16.0245 66.982 14.093 62.7036 14.093H46.8275C43.8678 14.093 42.9254 18.3654 40.0155 18.2088C39.1453 18.1622 38.6019 18.0011 37.9967 17.551C36.8902 16.7305 35.7867 14.4604 32.7834 14.4604L32.7895 14.4634Z" fill="#F37123"/>
<path fill-rule="evenodd" clip-rule="evenodd" d="M123.641 62.9468H157.346C157.627 62.9468 157.712 62.8625 157.712 62.581V52.3231H135.608V43.1642H154.048V33.0282C154.048 32.7467 153.963 32.6624 153.682 32.6624H135.608V24.7243H156.245C156.837 24.7243 156.611 23.5727 156.611 22.4045V14.3445C156.113 13.9576 155.535 14.1006 154.657 14.1006H123.64V62.9483L123.641 62.9468Z" fill="#F37123"/>
<path fill-rule="evenodd" clip-rule="evenodd" d="M161.624 38.1543C161.624 45.3306 164.07 51.408 168.921 56.2584C170.393 57.7307 170.632 57.9084 172.197 59.0886C179.891 64.8995 191.308 65.1028 199.383 60.037C200.235 59.5026 202.093 58.208 202.809 57.4793C203.217 57.0654 203.505 56.9058 203.91 56.5038C204.656 55.7617 207.345 52.7057 207.419 51.831C206.954 51.7076 203.131 49.0159 202.63 48.6817C201.528 47.944 198.725 45.9223 197.893 45.4812C197.555 46.9264 195.172 49.326 193.899 50.2804C189.346 53.6917 183.117 53.4945 178.701 49.8966C177.5 48.918 177.849 49.1062 177.041 48.2587C173.499 44.5448 172.517 37.8909 174.55 32.8839C174.908 32.0017 175.224 31.3784 175.689 30.6047C176.421 29.3913 176.397 29.5825 177.131 28.628C178.343 27.0549 180.308 25.8987 182.14 25.0888C183.161 24.6372 185.294 24.2322 186.412 24.2322C191.567 24.2322 195.749 27.4689 197.525 30.826C197.983 30.704 198.323 30.3337 198.72 30.0672L206.928 24.3527C206.607 22.9737 203.008 19.5986 201.504 18.4198C200.325 17.497 198.082 16.112 196.688 15.5415C192.399 13.7861 190.463 13.3616 185.557 13.3616C182.125 13.3616 178.199 14.5915 175.87 15.7628C174.143 16.6314 171.784 18.0194 170.322 19.3743C170.047 19.6302 169.871 19.8605 169.591 20.1074C169.208 20.4446 169.101 20.4085 168.757 20.8616C168.275 21.4939 167.841 21.8431 167.325 22.4829C165.937 24.2021 164.736 26.0914 163.823 28.1403C162.657 30.7612 161.624 34.3757 161.624 38.1528V38.1543Z" fill="#F37123"/>
<path fill-rule="evenodd" clip-rule="evenodd" d="M79.5581 24.3509C79.5581 24.6325 79.6424 24.7168 79.924 24.7168H92.869V62.5735C92.869 62.855 92.9533 62.9393 93.2348 62.9393H104.836V24.7168H117.659C117.94 24.7168 118.025 24.6325 118.025 24.3509V14.093H79.5566V24.3509H79.5581Z" fill="#F37123"/>
<path fill-rule="evenodd" clip-rule="evenodd" d="M27.6602 37.048C27.6602 40.0062 29.694 42.055 32.7891 42.055C35.0713 42.055 37.3069 39.9791 37.3069 37.048C37.3069 33.2092 32.2667 30.7177 29.152 33.7782C28.4324 34.4843 27.6602 35.6721 27.6602 37.048Z" fill="#F68A47"/>
<path fill-rule="evenodd" clip-rule="evenodd" d="M28.6399 51.0971C28.6399 52.3436 28.6023 52.8464 29.4378 53.9619C31.9307 57.2858 37.6769 54.6017 36.158 50.1728C35.762 49.0196 34.368 47.6783 32.9138 47.6783H32.0587C30.472 47.6783 28.6399 49.5104 28.6399 51.0971Z" fill="#F68A47"/>
<path fill-rule="evenodd" clip-rule="evenodd" d="M28.6396 4.2061V5.06118C28.6396 7.89437 32.7826 9.89206 35.2635 7.41113C36.3609 6.31368 36.6545 4.72547 36.1592 3.28177C35.7151 1.98862 34.2639 0.7873 32.915 0.7873H32.06C30.4732 0.7873 28.6412 2.61939 28.6412 4.2061H28.6396Z" fill="#F68A47"/>
<path fill-rule="evenodd" clip-rule="evenodd" d="M17.399 28.5089C17.399 28.8582 17.6519 29.7418 17.7452 29.9948C18.3082 31.5228 19.7384 32.295 21.5509 32.295C23.2084 32.295 24.9697 30.5337 24.9697 28.8762C24.9697 27.5966 24.7439 26.7145 23.7834 25.7886C21.8264 23.8993 18.8126 24.7981 17.8009 26.9598C17.6474 27.2865 17.3975 28.1025 17.3975 28.5104L17.399 28.5089Z" fill="#F9A670"/>
<path fill-rule="evenodd" clip-rule="evenodd" d="M18.127 44.0115C18.127 48.4735 24.2118 48.2297 24.3353 44.2463C24.4106 41.8482 21.2447 39.8731 19.1296 41.9626C18.6463 42.4398 18.127 43.1082 18.127 44.013V44.0115Z" fill="#F9A670"/>
<path fill-rule="evenodd" clip-rule="evenodd" d="M18.127 12.8806C18.127 17.1906 24.2224 17.1545 24.3353 13.1154C24.3594 12.2649 23.9183 11.4249 23.4742 10.9537C21.326 8.67747 18.127 10.6736 18.127 12.8821V12.8806Z" fill="#F9A670"/>
<path fill-rule="evenodd" clip-rule="evenodd" d="M9.2168 36.1993V36.8105C9.2168 38.3038 10.8577 39.6768 12.3496 39.5669C15.5877 39.329 16.3856 35.1951 13.6111 33.759C11.4493 32.6405 9.2168 34.4695 9.2168 36.1993Z" fill="#FBC199"/>
<path fill-rule="evenodd" clip-rule="evenodd" d="M9.70898 52.203C9.70898 55.7483 14.716 55.7769 14.716 52.203C14.716 49.0085 9.70898 49.2313 9.70898 52.203Z" fill="#FBC199"/>
<path fill-rule="evenodd" clip-rule="evenodd" d="M9.70898 20.6967C9.70898 24.1471 14.716 24.3323 14.716 20.6967C14.716 19.3885 13.4755 18.3769 12.64 18.3769H12.0288C10.8215 18.3769 9.70898 19.5812 9.70898 20.6967Z" fill="#FBC199"/>
<path fill-rule="evenodd" clip-rule="evenodd" d="M0.547852 28.2723C0.547852 32.0448 5.39228 31.2891 5.26884 28.4077C5.13636 25.3111 0.547852 25.4541 0.547852 28.2723Z" fill="#FEDEC7"/>
<path fill-rule="evenodd" clip-rule="evenodd" d="M0.911133 44.2676C0.911133 47.1173 4.81919 46.9382 4.81919 44.3895C4.81919 41.7008 0.911133 42.032 0.911133 44.2676Z" fill="#FEDEC7"/>
<path fill-rule="evenodd" clip-rule="evenodd" d="M0.911133 13.0006C0.911133 15.5748 4.81919 15.7013 4.81919 12.8786C4.81919 10.6295 0.911133 10.4052 0.911133 13.0006Z" fill="#FEDEC7"/>
</svg>
